# xmcd CD database file
# Copyright (C) 1993-2000  Ti Kan
#
# Track frame offsets:
#	150
#	10995
#	23630
#	32255
#	47325
#	58932
#	71492
#	84492
#	94312
#	107847
#	119112
#	131142
#	144635
#	155990
#	169657
#	183457
#
# Disc length: 2560 seconds
#
# Revision: 17
# Processed by: cddbd v1.5.1PL2 Copyright (c) Steve Scherf et al.
# Submitted via: xmcd 2.6 PL0
#
DISCID=e009fe10
DTITLE=Various Artist - 16 Country Hits From The 1940's
DYEAR=1900
DGENRE=
TTITLE0=Tennesee Waltz (Pee Wee King And Redd Stewart)
TTITLE1=Filipino Baby (Cowboy Copas)
TTITLE2=Money, Marbles, And Chalk (Pop Ekler)
TTITLE3=Deck Of Cards (T. Texas Tyler)
TTITLE4=River Of Tears (York Brothers)
TTITLE5=I Wasted A Nickel (Hawkshaw Hawkins)
TTITLE6=Blues, Stay Aaway From Me (Delmore Brothers)
TTITLE7=Cowboy's Sweetheart (Patsy Montana)
TTITLE8=Jole Blon (Moon Mullican)
TTITLE9=Have I Told You Lately That I Love You (Lulu Belle And Scotty)
TTITLE10=Candy Kisses (George Morgan)
TTITLE11=Rye Whiskey (Tex Ritter)
TTITLE12=Take An Old Cold Tater And Wait (Jimmy Dickens)
TTITLE13=Philadelphia Lawyer (Rose Maddox)
TTITLE14=Why Don't You Haul Off And Love Me (Wayne Raney)
TTITLE15=Choc'late Ice Cream Cone (Kenny Roberts)
EXTD=
EXTT0=
EXTT1=
EXTT2=
EXTT3=
EXTT4=
EXTT5=
EXTT6=
EXTT7=
EXTT8=
EXTT9=
EXTT10=
EXTT11=
EXTT12=
EXTT13=
EXTT14=
EXTT15=
PLAYORDER=
